<?xml version="1.0" encoding="UTF-8"?>
<svg id="Layer_1" xmlns="http://www.w3.org/2000/svg" version="1.1" viewBox="0 0 974.1 131.1">
  <!-- Generator: Adobe Illustrator 30.3.0, SVG Export Plug-In . SVG Version: 2.1.3 Build 182)  -->
  <defs>
    <style>
      .st0 {
        fill: #ea0029;
      }

      .st1 {
        fill: #fefefe;
      }
    </style>
  </defs>
  <polygon class="st1" points="35.2 1.7 35.2 1.7 0 101.2 19.9 101.2 45.2 29.8 35.2 1.7"/>
  <g>
    <g>
      <path class="st1" d="M217.3,28.2c3.7,1.6,6.7,4,9.1,7.2,2,2.7,3.2,5.6,3.7,8.5.4,2.9.7,7.6.7,14.2v43.2h-19.6v-44.8c0-4-.7-7.2-2-9.6-1.7-3.4-5-5.1-9.9-5.1s-8.9,1.7-11.5,5.1c-2.6,3.4-3.9,8.3-3.9,14.6v39.9h-19.2V2.2h19.2v35.1c2.8-4.3,6-7.3,9.6-8.9,3.7-1.7,7.5-2.5,11.5-2.5s8.6.8,12.3,2.4Z"/>
      <path class="st1" d="M270.3,56.6c3.6-.4,6.1-1,7.7-1.7,2.8-1.2,4.1-3,4.1-5.5s-1.1-5.1-3.2-6.2c-2.1-1.1-5.2-1.7-9.3-1.7s-7.9,1.1-9.8,3.4c-1.4,1.7-2.3,3.9-2.7,6.8h-18.6c.4-6.4,2.2-11.7,5.4-15.9,5.1-6.5,13.9-9.7,26.3-9.7s15.3,1.6,21.6,4.8c6.3,3.2,9.4,9.2,9.4,18.1v33.8c0,2.3,0,5.2.1,8.5.1,2.5.5,4.2,1.1,5.1.6.9,1.6,1.6,2.8,2.2v2.8h-20.9c-.6-1.5-1-2.9-1.2-4.2-.2-1.3-.4-2.8-.5-4.5-2.7,2.9-5.8,5.3-9.2,7.4-4.2,2.4-8.9,3.6-14.1,3.6s-12.2-1.9-16.6-5.7c-4.4-3.8-6.6-9.2-6.6-16.2s3.5-15.6,10.5-19.6c3.9-2.2,9.5-3.8,17-4.7l6.6-.8ZM282,65.6c-1.2.8-2.5,1.4-3.7,1.9-1.3.5-3,.9-5.2,1.3l-4.4.8c-4.1.7-7.1,1.6-8.8,2.6-3,1.8-4.5,4.5-4.5,8.2s.9,5.7,2.8,7.1c1.9,1.5,4.1,2.2,6.8,2.2,4.2,0,8.1-1.2,11.6-3.6,3.5-2.4,5.4-6.9,5.5-13.3v-7.2Z"/>
      <path class="st1" d="M354.6,27.8h20.7l-26.6,73.6h-20.3l-26.4-73.6h21.6l15.3,54.3,15.7-54.3Z"/>
      <path class="st1" d="M407.5,56.6c3.6-.4,6.1-1,7.7-1.7,2.8-1.2,4.2-3,4.2-5.5s-1.1-5.1-3.2-6.2-5.2-1.7-9.3-1.7-7.9,1.1-9.8,3.4c-1.4,1.7-2.3,3.9-2.7,6.8h-18.6c.4-6.4,2.2-11.7,5.4-15.9,5.1-6.5,13.9-9.7,26.3-9.7s15.3,1.6,21.6,4.8c6.3,3.2,9.4,9.2,9.4,18.1v33.8c0,2.3,0,5.2.1,8.5.1,2.5.5,4.2,1.1,5.1.6.9,1.6,1.6,2.8,2.2v2.8h-20.9c-.6-1.5-1-2.9-1.2-4.2-.2-1.3-.4-2.8-.5-4.5-2.7,2.9-5.8,5.3-9.2,7.4-4.2,2.4-8.9,3.6-14.1,3.6s-12.2-1.9-16.6-5.7c-4.4-3.8-6.6-9.2-6.6-16.2s3.5-15.6,10.5-19.6c3.9-2.2,9.5-3.8,17-4.7l6.6-.8ZM419.3,65.6c-1.2.8-2.5,1.4-3.7,1.9-1.3.5-3,.9-5.2,1.3l-4.4.8c-4.1.7-7.1,1.6-8.8,2.6-3,1.8-4.5,4.5-4.5,8.2s.9,5.7,2.8,7.1c1.9,1.5,4.1,2.2,6.8,2.2,4.2,0,8.1-1.2,11.6-3.6,3.5-2.4,5.4-6.9,5.5-13.3v-7.2Z"/>
      <path class="st1" d="M469.1,101.4h-19.2V1.9h19.2v99.5Z"/>
      <path class="st1" d="M511.8,12.3c8-8.2,18.2-12.3,30.6-12.3s28.7,5.5,36.3,16.5c4.2,6.2,6.5,12.4,6.8,18.6h-20.8c-1.3-4.8-3-8.4-5.1-10.8-3.7-4.3-9.2-6.5-16.5-6.5s-13.3,3.1-17.5,9.1c-4.3,6.1-6.4,14.7-6.4,25.9s2.3,19.5,6.8,25.1c4.5,5.6,10.2,8.3,17.2,8.3s12.6-2.4,16.3-7.2c2.1-2.6,3.8-6.4,5.2-11.5h20.7c-1.8,10.8-6.3,19.7-13.7,26.5-7.3,6.8-16.7,10.2-28.2,10.2s-25.3-4.6-33.4-13.8c-8.1-9.2-12.2-21.9-12.2-37.9s4.6-30.8,13.8-40.2Z"/>
      <path class="st1" d="M656.2,92.4c-6.2,7.7-15.6,11.5-28.3,11.5s-22.1-3.8-28.3-11.5c-6.2-7.7-9.3-16.9-9.3-27.7s3.1-19.8,9.3-27.6c6.2-7.8,15.6-11.7,28.3-11.7s22.1,3.9,28.3,11.7c6.2,7.8,9.3,17,9.3,27.6s-3.1,20-9.3,27.7ZM640.8,81.8c3-4,4.5-9.7,4.5-17.1s-1.5-13-4.5-17c-3-4-7.3-6-13-6s-10,2-13,6c-3,4-4.6,9.7-4.6,17s1.5,13.1,4.6,17.1c3,4,7.4,6,13,6s9.9-2,13-6Z"/>
      <path class="st1" d="M712.4,26.1c.2,0,.8,0,1.7.1v19.7c-1.2-.1-2.3-.2-3.2-.3-.9,0-1.7,0-2.3,0-7.7,0-12.9,2.5-15.6,7.6-1.5,2.8-2.2,7.2-2.2,13.1v35.2h-19.4V27.8h18.4v12.8c3-4.9,5.6-8.3,7.8-10.1,3.6-3,8.3-4.5,14-4.5s.7,0,.9,0Z"/>
      <path class="st1" d="M778.9,32c4.8,4,7.2,10.6,7.2,19.8v49.6h-19.7v-44.8c0-3.9-.5-6.8-1.5-8.9-1.9-3.8-5.5-5.7-10.7-5.7s-10.9,2.8-13.3,8.3c-1.3,2.9-1.9,6.7-1.9,11.2v39.8h-19.2V27.9h18.6v10.7c2.5-3.8,4.8-6.5,7-8.2,3.9-3,8.9-4.5,15-4.5s13.8,2,18.6,6Z"/>
      <path class="st1" d="M847.2,29.3c5.1,2.3,9.4,5.9,12.7,10.9,3,4.4,5,9.4,5.9,15.2.5,3.4.7,8.2.6,14.6h-53.6c.3,7.4,2.9,12.6,7.7,15.5,2.9,1.8,6.5,2.8,10.6,2.8s7.9-1.1,10.7-3.4c1.5-1.2,2.8-2.9,4-5.1h19.6c-.5,4.4-2.9,8.8-7.1,13.3-6.6,7.2-15.8,10.7-27.7,10.7s-18.4-3-25.9-9.1c-7.5-6-11.2-15.9-11.2-29.5s3.4-22.5,10.1-29.3c6.8-6.8,15.5-10.2,26.3-10.2s12.2,1.1,17.3,3.4ZM818.5,45.9c-2.7,2.8-4.4,6.6-5.1,11.4h33.1c-.4-5.1-2.1-9-5.1-11.6-3.1-2.6-6.9-4-11.4-4s-8.8,1.4-11.5,4.2Z"/>
      <path class="st1" d="M863,115.5c1.1,0,1.8.1,2.3.2.5,0,.9,0,1.2,0,1.9,0,3.3-.5,4.3-1.4,1-.9,1.4-2.7,1.4-5.4V28.2h19.2v81.1c0,7.4-1.5,12.9-4.4,16.5-2.9,3.6-8.7,5.3-17.2,5.3s-1.5,0-2.6,0c-1.1,0-2.6,0-4.3-.1v-15.4ZM891.5,19h-19.2V1.3h19.2v17.8Z"/>
      <path class="st1" d="M964.4,92.4c-6.2,7.7-15.6,11.5-28.3,11.5s-22.1-3.8-28.3-11.5c-6.2-7.7-9.3-16.9-9.3-27.7s3.1-19.8,9.3-27.6c6.2-7.8,15.6-11.7,28.3-11.7s22.1,3.9,28.3,11.7c6.2,7.8,9.3,17,9.3,27.6s-3.1,20-9.3,27.7ZM949,81.8c3-4,4.5-9.7,4.5-17.1s-1.5-13-4.5-17c-3-4-7.3-6-13-6s-10,2-13,6c-3,4-4.6,9.7-4.6,17s1.5,13.1,4.6,17.1c3,4,7.4,6,13,6s9.9-2,13-6Z"/>
      <path class="st1" d="M138.3,54.2c-.4-2.7-1.3-5.2-2.8-7.4-2.2-3-5.5-4.5-10.1-4.5-6.5,0-10.9,3.2-13.3,9.7-1.3,3.4-1.9,7.9-1.9,13.6s.6,9.7,1.9,13c2.3,6.1,6.6,9.2,13,9.2s7.7-1.2,9.6-3.6c1.9-2.4,3-5.6,3.5-9.5h19.6c-.5,5.9-2.6,11.4-6.4,16.6-6,8.4-15,12.6-26.8,12.6s-20.6-3.5-26.2-10.5c-5.6-7-8.4-16.1-8.4-27.3s3.1-22.4,9.3-29.5c6.2-7,14.7-10.5,25.5-10.5s16.8,2.1,22.7,6.2c5.9,4.1,9.4,11.5,10.4,21.9h-19.7Z"/>
    </g>
    <polygon class="st0" points="70.4 101.2 93.1 101.2 57.9 1.7 35.2 1.7 35.2 1.7 70.4 101.2"/>
  </g>
</svg>