<?xml version="1.0" encoding="UTF-8"?>
<svg id="Layer_1" xmlns="http://www.w3.org/2000/svg" version="1.1" viewBox="0 0 284.1 41.5">
  <!-- Generator: Adobe Illustrator 30.3.0, SVG Export Plug-In . SVG Version: 2.1.3 Build 182)  -->
  <defs>
    <style>
      .st0 {
        fill: #fff;
      }
    </style>
  </defs>
  <g id="Logo_Dujovne">
    <path class="st0" d="M147.5.8h-.9s0,2.4,0,2.4H.1c0-.8,0-1.6,0-2.3v-.5S.4.1.4.1C.5,0,.6,0,.9,0h183.4s94,0,94,0h.2S283,0,283,0c0,0,.2.2.2.3v.6c0,0-135.7,0-135.7,0Z"/>
    <path class="st0" d="M.2,41.1v-.4s163.5,0,163.5,0v-2.1c0-.2.1-.3.3-.3h94.1s25.8,0,25.8,0v.2c0,0,0,.1,0,.1v.2s0,.2,0,.2h0c0,.1,0,2.5,0,2.5h-.2c0,.1-281.9.1-281.9.1H.8s-.2,0-.2,0c0,0-.3,0-.3,0v-.4Z"/>
    <path class="st0" d="M125.2,32.3h-5.7s-4.5-9.9-4.5-9.9l-2-4.6c0,.5,0,.9,0,1.4v3.1c0,0,.1,3.7.1,3.7v4.8c0,0,.1,1.5.1,1.5h-5.3s0-22.2,0-22.2h6.1s3.6,7.1,3.6,7.1c1.1,2,2,4,2.7,6.2.1-.3,0-.6,0-.9v-2.2c-.1,0-.2-3-.2-3v-7.2c0,0,5.1,0,5.1,0v22.2Z"/>
    <path class="st0" d="M80.1,27.1c-1.2,2.7-3.6,4.6-6.5,5.3s-4.5.4-6.7-.2-5-2.7-6.2-5.3-1.2-4.6-1-7.1c.3-4.1,2.4-7.8,6.4-9.2s6-1,8.8,0,5.7,4.5,6.2,8.4v1.4c0,0,0,1.1,0,1.1v1.5c-.2,1.4-.5,2.8-1.1,4.1ZM72.9,28c.7-.6,1.1-1.3,1.4-2.2.4-1.4.6-2.8.6-4.2v-2.6c0-1.1-.4-2.1-.8-3.1-.7-1.5-2-2.2-3.6-2.2s-3,.7-3.7,2.3-.9,2.4-.9,3.7v3.6c0,1.1.3,2.1.6,3.1s1.5,2.1,2.8,2.2,2.6.1,3.6-.7Z"/>
    <path class="st0" d="M214.2,24.2l5.2,8.1h-6.6s-1.5-2.3-1.5-2.3l-2.4-4-1.4-2.1c-.3-.4-.7-.6-1.2-.4v8.9s-5.4,0-5.4,0V10.1s10.1,0,10.1,0c1,0,2,.3,2.9.6,2,.8,3.5,2.7,3.9,4.8s.2,1.1.1,1.7c-.2,2.6-1.8,5-4.4,5.8l.9,1.2ZM211.9,15.7c-.2-.6-.6-.9-1.1-1.1-.5-.2-1-.3-1.6-.3h-2.9s0,5.1,0,5.1h2.4c.7,0,1.5-.1,2.1-.4,1.3-.5,1.5-2.1,1-3.3Z"/>
    <path class="st0" d="M18.7,19.5c.6,5.1-1,10-5.9,12.1-1,.3-2.1.7-3.2.7H.5s0-22.2,0-22.2h8.6c1.4,0,2.8.4,4.1,1,3.5,1.6,5,4.7,5.4,8.4ZM12.5,19.7c-.1-1.2-.3-2.3-.8-3.4-.5-1.1-1.5-1.9-2.8-2s-1.7,0-2.7,0v13.8s1,0,1,0h2c3.5-.3,3.6-5.4,3.3-8.4Z"/>
    <path class="st0" d="M181.4,32.3h-5.7s0-9.2,0-9.2v-.2c-.1,0-.3,0-.4,0h-5.6s0,9.4,0,9.4h-5.6s0-22.2,0-22.2h5.6s0,8.3,0,8.3h6s0-8.3,0-8.3h5.7s0,22.2,0,22.2Z"/>
    <polygon class="st0" points="282.6 32.3 277 32.3 277 22.9 271 22.9 271 32.3 265.4 32.3 265.4 10.1 271 10.1 271 18.4 277 18.4 277 10.1 282.6 10.1 282.6 32.3"/>
    <path class="st0" d="M42.1,10.1v15.8s-.1,1.2-.1,1.2c-.1,1-.4,2-1.2,2.7l-1,1c-1.4,1-3,1.6-4.7,1.8s-3.3.1-4.9-.1c-2.9-.5-5.7-2.1-6-5.2v-1c-.1,0-.1-16.3-.1-16.3h5.6s0,15.4,0,15.4c0,.5,0,1,.3,1.5.9,1.5,3.2,1.8,4.9,1s1.4-1.3,1.5-2.7v-15.2s5.7,0,5.7,0Z"/>
    <path class="st0" d="M221.7,31.1c-.1,0-.2-.2-.1-.3l1.8-4.1c2.5,1.1,4.3,1.7,6.9,1.6s1.7,0,2.5-.4,1.3-1.2,1.1-2.3-1.2-1.5-2.1-1.7l-3.4-.8-1.8-.5c-1-.4-2-1-2.7-1.9s-1.3-2.2-1.4-3.5c-.2-2.1.5-4.1,2-5.5,3.4-3.2,9.1-2.8,13.3-1.2s1.5.7,2.2,1.1l-2.6,3.9c-2-1-3.7-1.7-6-1.6s-2.6.5-2.8,1.7,0,1.2.4,1.5.9.5,1.3.6l4.1,1c1.4.3,2.7,1,3.7,1.9s2,2.8,2,4.6c0,2.7-1.5,4.9-3.8,6.1-1.6.9-3.3,1.3-5.1,1.4-3.3.3-6.6-.3-9.6-1.7Z"/>
    <path class="st0" d="M95.3,18.1l3.2-8h5.8s-8.7,22.4-8.7,22.4h-4.8s-8.5-22.4-8.5-22.4h6.1s3.5,9.8,3.5,9.8l1.4,4.4c.6-2.2,1.2-4.1,2.1-6.2Z"/>
    <polygon class="st0" points="144.2 22.9 137.7 22.9 137.7 27.8 146.5 27.8 146.5 32.3 132.1 32.3 132.1 10.1 146.3 10.1 145.5 14.4 137.7 14.4 137.7 18.5 144.2 18.5 144.2 22.9"/>
    <path class="st0" d="M254.4,28.6c1.8.2,3.4-.2,4.9-1.3l2.5,3.2c-1.5,1.3-3.3,1.9-5.3,2.2-2.9.3-6.9,0-9-2.1l-.8-.7c-.6-.5-1-1.1-1.4-1.8-1.5-2.5-1.8-5.4-1.5-8.3s.4-2.8,1-4.1c1.7-3.7,5.2-5.8,9.2-6.1s3.9.2,5.7.9,1,.5,1.5.8l-2.5,3.6c-1.9-1.1-3.9-1.5-5.9-.6-2.3.9-2.7,3.1-2.8,5.4v2.6s.2,1.9.2,1.9c.2,2.3,1.9,4.2,4.2,4.4Z"/>
    <path class="st0" d="M48.1,37.9l-1.4-1.4-1.3-1.3c.9-.6,1.7-1.3,2.4-2.1s.9-1.8,1-2.9V10.1s5.7,0,5.7,0v18.5s0,1.6,0,1.6c0,1.9-.6,3.5-1.9,4.9s-2.7,2.2-4.5,2.9Z"/>
    <rect class="st0" x="188.2" y="10.1" width="5.8" height="22.2"/>
    <path class="st0" d="M156.4,19.1c.3.8,0,1.7-.7,2.2s-1.8.3-2.3-.3-.6-1.6,0-2.3,1-.7,1.7-.6,1.1.4,1.3,1.1Z"/>
  </g>
</svg>