<?xml version="1.0" encoding="UTF-8"?>
<svg id="Layer_1" xmlns="http://www.w3.org/2000/svg" version="1.1" viewBox="0 0 299.1 158.7">
  <!-- Generator: Adobe Illustrator 30.3.0, SVG Export Plug-In . SVG Version: 2.1.3 Build 182)  -->
  <defs>
    <style>
      .st0 {
        fill: #fff;
      }
    </style>
  </defs>
  <g>
    <polygon class="st0" points="0 0 77.7 0 77.7 22.7 22.7 22.7 22.7 116.7 0 116.7 0 0"/>
    <polygon class="st0" points="37.2 71.4 26.8 50.5 64.5 50.5 64.5 71.4 37.2 71.4"/>
    <polygon class="st0" points="159 116.7 150.6 96.7 99 96.7 90.5 116.7 66.3 116.7 114.1 0 138.5 0 107.1 76.6 142.4 76.6 126.4 37.9 144.7 22.3 183.2 116.7 159 116.7"/>
    <path class="st0" d="M255.8,46.9c1.6,0,3-.4,4.4-1.1,1.4-.7,2.6-1.7,3.7-2.8,1.1-1.2,2-2.5,2.6-4.2.6-1.6.9-3.3.9-5.1s-.3-3.5-.9-5.1c-.6-1.6-1.5-3-2.6-4.2-1.1-1.2-2.4-2.2-3.7-2.9-1.4-.7-2.9-1.1-4.4-1.1h-33.4v26.4h33.4ZM285.1,54c4.2,3.1,7.6,7.1,10.1,11.9,2.5,4.8,3.8,10.1,3.8,15.7s-.9,9.4-2.7,13.6c-1.8,4.2-4.3,7.9-7.5,11.1-3.2,3.2-6.9,5.7-11.1,7.6-4.3,1.8-8.8,2.7-13.6,2.7h-24.4l-10.8-20.3h35.6c1.6,0,3-.4,4.4-1.2,1.4-.8,2.6-1.9,3.6-3.1,1-1.2,1.8-2.6,2.4-4.2.6-1.6.9-3.1.9-4.7s-.3-3.3-.9-4.9c-.6-1.6-1.5-3-2.6-4.2-1.1-1.2-2.4-2.2-3.7-3-1.4-.8-2.9-1.2-4.4-1.2h-41.7v46.7h-23.3V.1h56.7c4.8,0,9.3.9,13.6,2.7,4.3,1.8,8,4.3,11.1,7.5,3.2,3.2,5.7,6.9,7.5,11.1,1.8,4.3,2.7,8.8,2.7,13.6s-.5,6.9-1.5,10.1c-1,3.2-2.4,6.1-4.2,8.9Z"/>
  </g>
  <g>
    <path class="st0" d="M7.8,158.7c-1.1,0-2.1-.2-3-.6s-1.8-1-2.5-1.8c-.7-.8-1.3-1.6-1.7-2.6-.4-1-.6-2.1-.6-3.2s.2-2.2.6-3.2c.4-1,1-1.9,1.7-2.6.7-.8,1.6-1.4,2.5-1.8s2-.6,3-.6,2.5.3,3.6.9c1.1.6,2,1.4,2.7,2.4l-2.5,1.3c-.4-.6-1-1-1.7-1.3-.7-.3-1.4-.5-2.1-.5s-1.4.1-2,.4c-.6.3-1.2.7-1.6,1.2s-.8,1.1-1.1,1.8c-.3.7-.4,1.4-.4,2.1s.1,1.5.4,2.1c.3.7.6,1.2,1.1,1.8.5.5,1,.9,1.6,1.2s1.3.4,2,.4,1.5-.2,2.1-.5c.7-.3,1.2-.8,1.7-1.3l2.5,1.3c-.7,1-1.6,1.8-2.7,2.4-1.1.6-2.3.9-3.6.9Z"/>
    <path class="st0" d="M41,158.7c-1.1,0-2.1-.2-3-.6-1-.4-1.8-1-2.5-1.8-.7-.8-1.3-1.6-1.7-2.6-.4-1-.6-2.1-.6-3.2s.2-2.2.6-3.2c.4-1,1-1.9,1.7-2.6.7-.8,1.6-1.4,2.5-1.8,1-.4,2-.6,3-.6s2.1.2,3.1.6c1,.4,1.8,1,2.5,1.8.7.8,1.3,1.6,1.7,2.6.4,1,.6,2.1.6,3.2s-.2,2.2-.6,3.2c-.4,1-1,1.9-1.7,2.6-.7.8-1.6,1.4-2.5,1.8-1,.4-2,.6-3.1.6ZM41,156c.7,0,1.4-.1,2-.4.6-.3,1.2-.7,1.6-1.2.5-.5.8-1.1,1.1-1.8.3-.7.4-1.4.4-2.1s-.1-1.5-.4-2.1c-.3-.7-.6-1.2-1.1-1.8-.5-.5-1-.9-1.6-1.2-.6-.3-1.3-.4-2-.4s-1.4.1-2,.4-1.2.7-1.6,1.2c-.5.5-.8,1.1-1.1,1.8-.3.7-.4,1.4-.4,2.1s.1,1.5.4,2.1c.3.7.6,1.2,1.1,1.8.5.5,1,.9,1.6,1.2.6.3,1.3.4,2,.4Z"/>
    <path class="st0" d="M68.3,158.4v-16h3l6.7,10.9v-10.9h2.8v16h-3l-6.8-10.9v10.9h-2.8Z"/>
    <path class="st0" d="M106.6,158.7c-.9,0-1.7-.1-2.5-.4-.8-.3-1.5-.7-2.1-1.2-.6-.5-1-1.1-1.3-1.9l2.6-1c.1.3.3.6.7.8s.7.5,1.2.6,1,.2,1.5.2,1.1,0,1.6-.3c.5-.2.9-.4,1.2-.7.3-.3.4-.7.4-1.1s-.2-.8-.5-1c-.3-.3-.7-.5-1.2-.6-.5-.2-1-.3-1.5-.4-1.1-.2-2.1-.4-3-.8-.9-.4-1.6-.9-2.1-1.5-.5-.6-.8-1.5-.8-2.5s.3-1.8.8-2.5c.6-.7,1.3-1.3,2.2-1.7.9-.4,1.9-.6,2.9-.6s1.7.1,2.5.4c.8.3,1.5.7,2.1,1.2s1.1,1.2,1.3,1.9l-2.6.9c-.1-.3-.3-.6-.7-.8s-.7-.5-1.2-.6-1-.2-1.5-.2c-.5,0-1.1,0-1.5.3s-.9.4-1.2.7c-.3.3-.5.7-.5,1s.1.9.4,1.2c.3.3.7.4,1.1.6.5.1,1,.2,1.6.3,1.1.2,2,.4,3,.8.9.4,1.6.9,2.2,1.6.5.7.8,1.5.8,2.4s-.3,1.8-.8,2.5c-.5.7-1.3,1.3-2.2,1.7-.9.4-1.9.6-3,.6Z"/>
    <path class="st0" d="M138.9,158.7c-1.3,0-2.4-.3-3.4-.9-1-.6-1.7-1.5-2.2-2.5-.5-1.1-.8-2.2-.8-3.5v-9.3h2.8v9.3c0,.8.1,1.5.4,2.1.3.6.7,1.1,1.2,1.5s1.2.6,2,.6,1.4-.2,2-.6.9-.9,1.2-1.5c.3-.6.4-1.3.4-2.1v-9.3h2.8v9.3c0,1-.2,1.9-.5,2.7s-.7,1.6-1.3,2.2c-.6.6-1.2,1.1-2,1.5-.8.4-1.6.5-2.6.5Z"/>
    <path class="st0" d="M165.1,158.4v-16h2.8v13.2h6.7v2.8h-9.4Z"/>
    <path class="st0" d="M204.8,142.5v2.8h-4.9v13.2h-2.8v-13.2h-4.9v-2.8h12.6Z"/>
    <path class="st0" d="M224.7,158.4v-16h2.8v16h-2.8Z"/>
    <path class="st0" d="M247.9,158.4v-16h3l6.7,10.9v-10.9h2.8v16h-3l-6.8-10.9v10.9h-2.8Z"/>
    <path class="st0" d="M288,158.7c-1.1,0-2.1-.2-3.1-.7-1-.4-1.8-1-2.5-1.8s-1.3-1.6-1.7-2.6c-.4-1-.6-2.1-.6-3.2s.2-2.3.6-3.3c.4-1,1-1.9,1.8-2.6.7-.7,1.6-1.3,2.5-1.7s1.9-.6,3-.6,2.3.3,3.3.8,2,1.4,2.9,2.5l-2.5,1.3c-.5-.6-1.1-1.1-1.8-1.4-.7-.3-1.3-.5-2-.5s-1.3.1-1.9.4c-.6.3-1.2.7-1.6,1.2s-.8,1.1-1.1,1.8c-.3.7-.4,1.4-.4,2.2s.1,1.5.4,2.1c.3.7.6,1.2,1.1,1.7.5.5,1,.9,1.6,1.2.6.3,1.3.4,2,.4s.9,0,1.4-.2c.5-.1.9-.4,1.3-.6.4-.3.8-.6,1.1-1,.3-.4.6-.9.8-1.4h-2.9v-2.4h6.2c0,1.2-.2,2.3-.5,3.3s-1,1.9-1.7,2.7c-.7.8-1.6,1.4-2.5,1.8-1,.4-2,.7-3.1.7Z"/>
  </g>
</svg>