<?xml version="1.0" encoding="UTF-8"?>
<svg id="Capa_1" xmlns="http://www.w3.org/2000/svg" version="1.1" viewBox="0 0 555.9 329.6">
  <!-- Generator: Adobe Illustrator 30.3.0, SVG Export Plug-In . SVG Version: 2.1.3 Build 182)  -->
  <g>
    <path d="M228.6,193.7c0-34.7,16.8-52.1,50.4-52.1s27,3.8,35.9,11.3c8.9,7.5,13.3,17.9,13.3,31.2v1.3h-26.1v-1.3c0-5.9-2-10.9-6.1-14.8s-9.8-5.9-17.2-5.9-14.4,2.5-18.2,7.4-5.7,13-5.7,24.3v28.2c0,10.7,2,18.5,6.1,23.2s10.3,7.1,18.8,7.1,13.8-2,17.4-5.9,5.5-9.9,5.5-17.8v-6.3h-24.3v-20.5h49.8v22.4c0,33.5-16.5,50.2-49.6,50.2s-50-17.4-50-52.1v-29.9Z"/>
    <path d="M379.8,197.4h52.2v21.6h-52.2v33.5h61.2v21.6h-87.3v-130.7h87.3v21.6h-61.2v32.4Z"/>
    <path d="M458.7,234.4h24.7c.9,7.2,3.4,12.3,7.3,15.3s9.7,4.5,17.4,4.5c14.7,0,22.1-5.7,22.1-17.2s-1.5-9.1-4.4-11.8-7.6-4.6-13.9-5.6l-12.9-2.1c-24.8-3.9-37.3-16-37.3-36.4s4.2-21.7,12.7-28.8c8.4-7.1,19.6-10.6,33.6-10.6s24.3,3.4,32.2,10.2,12.4,16.4,13.4,28.8h-25.1c-.4-6.3-2.3-10.9-5.8-13.8s-8.5-4.4-15.1-4.4-11.9,1.5-15.3,4.5-5.2,7-5.2,12.2,1.5,8.1,4.6,10.8,7.8,4.5,14.3,5.7l14.5,2.5c23.6,4,35.5,16.3,35.5,36.8s-4.4,23.2-13.2,30.1c-8.8,6.9-20.8,10.4-35.8,10.4s-26.2-3.5-34.5-10.5c-8.2-7-12.8-17.1-13.7-30.4Z"/>
  </g>
  <path d="M0,1h52.9c-26.3,27.3-1.7,110.6,1.5,142,0,0,10.6-11.4,24.3-29.3,1.9-2.2,3.5-3.9,4.9-5.3s3.3.4,2.2,1.9c-32.2,44.8-31.3,50.7-14.6,112.2,6.5,2.8,20-20.6,47.6-30.1,9.8-7.9-30.4,6.8-42.6,22.5,74.7-118.4,138.8,23.9-2.7,12.9,9.5,83.7,70.4,108.4-41.9,99.7C48,287.3-1.5,234.6,6.5,231.7c0,0,27.8,37.7,30.8,42.6,8.5-14.1,10.5-48.8,8.8-106.2C42.4,78.3-3.1,77.9,4.6,75.6s33.7,24,31.5,11C32.4,64.4,16.8,21.8,0,1Z"/>
  <g>
    <path d="M244,292.6c3.9,0,7,1.1,9.2,3.4,2.3,2.2,3.4,5.8,3.4,10.6v8.6c0,4.8-1.1,8.4-3.4,10.6-2.3,2.2-5.4,3.4-9.2,3.4h-12.5v-36.6h12.5ZM252.8,315.4v-8.6c0-3.7-.8-6.4-2.3-8.1-1.5-1.7-3.6-2.5-6.4-2.5h-8.6v29.6h8.6c5.8,0,8.7-3.4,8.7-10.3Z"/>
    <path d="M268.1,308.8h15.7v3.5h-15.7v13.4h18.3v3.5h-22.2v-36.6h22.2v3.5h-18.3v12.7Z"/>
    <path d="M290.4,318.8h3.8c.5,4.8,3.4,7.3,8.7,7.3s4.8-.6,6.3-1.7c1.4-1.2,2.1-2.9,2.1-5.1s-.6-3.5-1.7-4.6c-1.1-1-2.8-1.7-5.1-2.1l-4.1-.7c-3-.5-5.2-1.5-6.8-3s-2.4-3.7-2.4-6.5,1.1-5.7,3.2-7.5c2.2-1.8,5-2.7,8.5-2.7s5.9.8,8,2.5c2.1,1.7,3.3,4.2,3.7,7.7h-3.8c-.4-4.6-3.1-6.8-7.9-6.8s-4.5.6-5.9,1.8c-1.4,1.2-2.1,2.8-2.1,4.8s.5,3.2,1.6,4.2c1.1,1,2.7,1.7,4.9,2.1l4.2.7c3.1.5,5.4,1.6,7,3.2,1.6,1.6,2.4,3.8,2.4,6.7s-1.1,5.9-3.3,7.7c-2.2,1.8-5.3,2.7-9.2,2.7s-6.6-.9-8.6-2.7c-2.1-1.8-3.3-4.5-3.6-7.9Z"/>
    <path d="M324.9,320.4l-3.1,8.8h-4.1l13.3-36.6h3.2l13.3,36.6h-4.1l-3.1-8.8h-15.5ZM332.6,298l-6.6,19.1h13.3l-6.7-19.1Z"/>
    <path d="M355.8,313.1v16.1h-3.9v-36.6h13.6c3.4,0,6.1.9,8.1,2.7s2.9,4.3,2.9,7.6-.7,4.8-2.1,6.5c-1.4,1.7-3.3,2.8-5.8,3.4l8.6,16.4h-4.5l-8.3-16.1h-8.8ZM365.2,309.8c2.4,0,4.2-.6,5.5-1.8,1.3-1.2,2-2.9,2-5.1s-.6-4-1.9-5.1-3.1-1.7-5.5-1.7h-9.4v13.7h9.4Z"/>
    <path d="M387.3,313.1v16.1h-3.9v-36.6h13.6c3.4,0,6.1.9,8.1,2.7s2.9,4.3,2.9,7.6-.7,4.8-2.1,6.5c-1.4,1.7-3.3,2.8-5.8,3.4l8.6,16.4h-4.5l-8.3-16.1h-8.8ZM396.6,309.8c2.4,0,4.2-.6,5.5-1.8s2-2.9,2-5.1-.6-4-1.9-5.1c-1.3-1.1-3.1-1.7-5.5-1.7h-9.4v13.7h9.4Z"/>
    <path d="M414.1,315.6v-9.5c0-4.8,1.1-8.4,3.4-10.6,2.3-2.2,5.4-3.4,9.3-3.4s6.9,1.1,9.2,3.4c2.3,2.2,3.4,5.8,3.4,10.6v9.5c0,4.8-1.1,8.4-3.4,10.6s-5.4,3.4-9.2,3.4-7-1.1-9.2-3.4-3.4-5.8-3.4-10.6ZM435.6,306.3c0-7.1-2.9-10.7-8.7-10.7s-5.1.8-6.6,2.5c-1.5,1.7-2.2,4.4-2.2,8.1v9.5c0,3.6.8,6.2,2.3,7.8s3.7,2.4,6.6,2.4c5.8,0,8.7-3.4,8.7-10.2v-9.5Z"/>
    <path d="M450.8,292.6v33.1h18.2v3.5h-22.1v-36.6h3.9Z"/>
    <path d="M478.6,292.6v33.1h18.2v3.5h-22.1v-36.6h3.9Z"/>
    <path d="M499.7,315.6v-9.5c0-4.8,1.1-8.4,3.4-10.6s5.4-3.4,9.3-3.4,6.9,1.1,9.2,3.4,3.4,5.8,3.4,10.6v9.5c0,4.8-1.1,8.4-3.4,10.6-2.3,2.2-5.4,3.4-9.2,3.4s-7-1.1-9.2-3.4c-2.3-2.2-3.4-5.8-3.4-10.6ZM521.1,306.3c0-7.1-2.9-10.7-8.7-10.7s-5.1.8-6.6,2.5c-1.5,1.7-2.2,4.4-2.2,8.1v9.5c0,3.6.8,6.2,2.3,7.8,1.5,1.6,3.7,2.4,6.6,2.4,5.8,0,8.7-3.4,8.7-10.2v-9.5Z"/>
    <path d="M530,318.8h3.8c.5,4.8,3.4,7.3,8.7,7.3s4.8-.6,6.3-1.7c1.4-1.2,2.1-2.9,2.1-5.1s-.6-3.5-1.7-4.6c-1.1-1-2.8-1.7-5.1-2.1l-4.1-.7c-3-.5-5.2-1.5-6.8-3s-2.4-3.7-2.4-6.5,1.1-5.7,3.2-7.5c2.2-1.8,5-2.7,8.5-2.7s5.9.8,8,2.5c2.1,1.7,3.3,4.2,3.7,7.7h-3.8c-.4-4.6-3.1-6.8-7.9-6.8s-4.5.6-5.9,1.8c-1.4,1.2-2.1,2.8-2.1,4.8s.5,3.2,1.6,4.2c1.1,1,2.7,1.7,4.9,2.1l4.2.7c3.1.5,5.4,1.6,7,3.2,1.6,1.6,2.4,3.8,2.4,6.7s-1.1,5.9-3.3,7.7c-2.2,1.8-5.3,2.7-9.2,2.7s-6.6-.9-8.6-2.7c-2.1-1.8-3.3-4.5-3.6-7.9Z"/>
  </g>
</svg>