<?xml version="1.0" encoding="UTF-8"?>
<svg id="Capa_1" xmlns="http://www.w3.org/2000/svg" version="1.1" viewBox="0 0 122.5 63.3">
  <!-- Generator: Adobe Illustrator 30.3.0, SVG Export Plug-In . SVG Version: 2.1.3 Build 182)  -->
  <defs>
    <style>
      .st0 {
        fill: #a95829;
      }
    </style>
  </defs>
  <path class="st0" d="M120.7,63H1.8c-.8,0-1.6-1-1.6-1.6v-15c0-1,.9-1.8,1.9-1.9h17.9s0-11,0-11H1.7c-.6,0-1.5-1.1-1.5-1.7v-14.5c0-.5.2-1.3.4-1.6s1.2-.7,1.8-.7h17.6s0-13.1,0-13.1c0-.9.8-1.6,1.8-1.7h78.6c1.1,0,2.3.7,2.3,1.8v13c0,0,17.8,0,17.8,0,1.1,0,1.9,1,1.9,2v14.8c0,.9-1,1.7-1.9,1.7h-17.8s0,11,0,11h17.7c1.1,0,2,.8,2,1.9v14.8c0,.7-.5,1.9-1.6,1.9ZM59.4,15V4c0,0-35.7,0-35.7,0v11.1s35.7,0,35.7,0ZM98.8,15V4s-35.6,0-35.6,0v11.1s35.6,0,35.6,0ZM39.7,29.8v-11s-35.6,0-35.6,0v11s35.6,0,35.6,0ZM79.1,29.8v-11s-35.7,0-35.7,0v11s35.7,0,35.7,0ZM118.5,29.8v-11s-35.6,0-35.6,0v11s35.6,0,35.6,0ZM59.3,44.5v-11s-35.6,0-35.6,0v11s35.6,0,35.6,0ZM98.8,44.5v-11s-35.6,0-35.6,0v11s35.6,0,35.6,0ZM39.7,59.2v-10.9s-35.7,0-35.7,0v10.9s35.7,0,35.7,0ZM79.1,59.3v-10.9s-35.6,0-35.6,0v10.9s35.6,0,35.6,0ZM118.5,59.3v-10.9s-35.6,0-35.6,0v10.9s35.6,0,35.6,0Z"/>
</svg>