<?xml version="1.0" encoding="UTF-8"?>
<svg id="Capa_1" xmlns="http://www.w3.org/2000/svg" version="1.1" viewBox="0 0 63.6 63.8">
  <!-- Generator: Adobe Illustrator 30.3.0, SVG Export Plug-In . SVG Version: 2.1.3 Build 182)  -->
  <defs>
    <style>
      .st0 {
        fill: #a95829;
      }
    </style>
  </defs>
  <path class="st0" d="M55.9,52.3c-11.7,13.6-31.4,15.1-44.8,3.5C1.5,47.6-2.2,34.4,1.8,22.1S15.2,2.1,27.5.5s25.4,4.7,31.7,15.8,5.3,25.9-3.4,36ZM14.7,52.6c7.3,6,16.4,7.8,25.8,4.7s13.9-8.3,16.6-16.4c4.6-13.2-1.3-27.3-13.5-33.3-12.2-5.9-27-1.9-34.3,9.3s-5.5,26.6,5.4,35.7Z"/>
  <path class="st0" d="M34,50.8c0,2.1-.7,3.2-2.4,3.2s-2.1-1.2-2.3-2.9l-.2-2.6c-4.5-1.1-8.1-3.9-9.3-8.5s1-2.3,1.9-2.4c3.3-.4,3.2,6.6,9.9,6.5s6.2-1.8,7.1-5-.6-3.5-2.4-3.9l-7.5-1.5c-4.1-.8-7.1-4.1-7.5-7.8-.9-8.1,7.5-10.2,7.8-10.8.7-1.2-.8-5.2,2.5-5.4s2.3,1.2,2.5,2.6l.2,2.8c4.2.7,6.9,3.2,8.8,6.8s.3,3.1-1.2,3.6c-3.4,1.2-3.4-6-9.4-5.9s-5.4,1.4-6.3,4,1.2,5.3,4,5.8,5.4.8,7.8,1.6c4.1,1.3,6.3,5.2,5.3,9.2s-4.7,7.4-9.1,8.4c-.1.4-.3,1.6-.3,2.3Z"/>
</svg>