<?xml version="1.0" encoding="UTF-8"?>
<svg id="Capa_1" xmlns="http://www.w3.org/2000/svg" version="1.1" viewBox="0 0 124.3 137">
  <!-- Generator: Adobe Illustrator 30.3.0, SVG Export Plug-In . SVG Version: 2.1.3 Build 182)  -->
  <defs>
    <style>
      .st0 {
        fill: #a95829;
      }
    </style>
  </defs>
  <path class="st0" d="M123,88.4c-1.2-2.5-3.6-4.5-6.4-5.3-2.5-.7-5-.4-7.1.8l-27.3,16.6c-1,.6-2.1,1-3.4,1.3,1.3-2.4,1.5-5,.5-7.7-.8-2.4-3-4.2-6.1-5.2l-21.3-7.1c-4.2-1.4-9.4-.9-13.1,1.2l-19.9,11.4-2.5-3.8c-1.6-2.5-4.9-2.2-7.2-.9l-6,3.5c-3.1,1.8-3.9,5-2.1,8.1l18.6,32.4c1.1,1.9,2.9,3,4.8,3s1.9-.3,2.8-.8l6-3.4c1.7-.9,2.8-2.3,3.2-3.9.4-1.4.2-2.9-.6-4.3l-1.7-2.9c1.3-.7,2.7-1.3,4.1-1.6l24.7,7.3c4,1.2,9.8,2,14.4-.7l41.1-24.3c4.9-2.9,6.6-8.6,4.2-13.7ZM74.9,98.3c-.2,1-1,2-1.9,2.5-.6.3-1.5.7-2.6.4l-14.7-3.9c-1.1-.3-2.5,0-3,.8-.5.7-.5,1.8-.2,2.6.2.6.6,1,1.1,1.1l17.7,4.6c4.9,1.3,9.5.7,13.5-1.7l26.4-16.2c1.3-.8,2.6-1,4-.6,1.4.4,2.6,1.3,3.4,2.6,1.5,2.7.6,5.8-2.4,7.5l-39.8,23.6c-3.3,1.9-7,2.4-10.7,1.2l-25.4-7.5c-.6-.2-1.2-.3-1.8-.3-2.3,0-4.4,1.2-6.4,2.4l-10.7-18.6,18.3-10.7c4-2.4,8.5-2.7,12.6-1l20,6.7c2,.7,3.2,2.6,2.7,4.5ZM32.2,127.4l-7.7,4.6L4.9,98.1c2.5-1.7,4.7-2.9,7.8-4.5l19.5,33.9Z"/>
  <g>
    <path class="st0" d="M105.4,52.4c-11.7,13.6-31.4,15.1-44.8,3.5s-13.3-21.4-9.3-33.8S64.7,2.2,77,.6c13.1-1.8,25.4,4.7,31.7,15.8,6.5,11.4,5.3,25.9-3.4,36ZM64.2,52.7c7.3,6,16.4,7.8,25.8,4.7s13.9-8.3,16.6-16.4c4.6-13.2-1.3-27.3-13.5-33.3-12.2-5.9-27-1.9-34.3,9.3s-5.5,26.6,5.4,35.7Z"/>
    <path class="st0" d="M83.5,50.9c0,2.1-.7,3.2-2.4,3.2s-2.1-1.2-2.3-2.9l-.2-2.6c-4.5-1.1-8.1-3.9-9.3-8.5s1-2.3,1.9-2.4c3.3-.4,3.2,6.6,9.9,6.5s6.2-1.8,7.1-5-.6-3.5-2.4-3.9l-7.5-1.5c-4.1-.8-7.1-4.1-7.5-7.8-.9-8.1,7.5-10.2,7.8-10.8.7-1.2-.8-5.2,2.5-5.4s2.3,1.2,2.5,2.6l.2,2.8c4.2.7,6.9,3.2,8.8,6.8s.3,3.1-1.2,3.6c-3.4,1.2-3.4-6-9.4-5.9s-5.4,1.4-6.3,4,1.2,5.3,4,5.8,5.4.8,7.8,1.6c4.1,1.3,6.3,5.2,5.3,9.2s-4.7,7.4-9.1,8.4c-.1.4-.3,1.6-.3,2.3Z"/>
  </g>
</svg>