<?xml version="1.0" encoding="UTF-8"?>
<svg id="Layer_1" xmlns="http://www.w3.org/2000/svg" version="1.1" viewBox="0 0 459.4 99.2">
  <!-- Generator: Adobe Illustrator 30.3.0, SVG Export Plug-In . SVG Version: 2.1.3 Build 182)  -->
  <defs>
    <style>
      .st0 {
        fill: #f2f0ef;
      }
    </style>
  </defs>
  <g>
    <path class="st0" d="M23.8,98.7h-5.3v-34h14c3.5,0,6.3,1,8.4,2.9,2.1,2,3.2,4.5,3.2,7.7s-1.1,5.7-3.2,7.7c-2.1,2-4.9,3-8.4,3h-8.7v12.7ZM23.8,69.4v11.7h8.5c2,0,3.5-.6,4.6-1.7,1.1-1.1,1.7-2.5,1.7-4.2s-.6-3.1-1.6-4.2c-1.1-1.1-2.7-1.6-4.7-1.6h-8.5Z"/>
    <path class="st0" d="M48.7,98.7h-5.6l14.1-34h5.7l14.1,34h-5.6l-2.7-7.1h-17.2l-2.7,7.1ZM53,87.2h14l-7-16.7-7,16.7Z"/>
    <path class="st0" d="M106,93.9v4.8h-24.7v-34h5.3v29.2h19.4Z"/>
    <path class="st0" d="M114.3,98.7h-5.6l14.1-34h5.7l14.1,34h-5.6l-2.7-7.1h-17.2l-2.7,7.1ZM118.6,87.2h14l-7-16.7-7,16.7Z"/>
    <path class="st0" d="M145.7,72.7c1.5-2.7,3.6-4.8,6.3-6.3s5.6-2.3,8.9-2.3,5.9.7,8.6,2.2c2.6,1.5,4.8,3.5,6.4,6.1l-4.1,2.9c-2.7-4.1-6.3-6.2-10.9-6.2s-6.4,1.2-8.6,3.5c-2.3,2.4-3.4,5.4-3.4,9s1.2,6.6,3.4,9c2.3,2.4,5.2,3.5,8.7,3.5s8.3-2.1,11-6l3.9,2.7c-1.6,2.6-3.7,4.6-6.3,6.1s-5.5,2.2-8.6,2.2c-4.9,0-9.4-1.9-12.5-5-3.1-3.1-5.1-7.6-5.1-12.5s.8-6.2,2.3-8.9Z"/>
    <path class="st0" d="M186.9,64.6v34h-5.3v-34h5.3Z"/>
    <path class="st0" d="M202.1,96.9c-2.7-1.5-4.8-3.5-6.3-6.2-1.5-2.7-2.3-5.7-2.3-9s.8-6.4,2.3-9,3.6-4.8,6.3-6.3c2.7-1.5,5.7-2.2,9-2.2,5,0,9.5,1.9,12.6,4.9,3.1,3.1,5,7.6,5,12.6s-.8,6.4-2.3,9c-1.5,2.7-3.6,4.7-6.3,6.2-2.7,1.5-5.7,2.2-9,2.2s-6.3-.7-9-2.2ZM202.3,90.7c2.2,2.3,5.1,3.5,8.7,3.5s6.6-1.2,8.8-3.5c2.2-2.3,3.3-5.3,3.3-9.1s-1.1-6.7-3.3-9c-2.2-2.3-5.1-3.5-8.8-3.5s-6.5,1.2-8.7,3.5-3.4,5.3-3.4,9,1.1,6.8,3.3,9.1Z"/>
    <path class="st0" d="M248.1,98.7v-34h6.2l11.8,24.2,11.8-24.2h6.2v34h-5.3v-24.4l-10.8,22h-3.8l-10.8-22v24.4h-5.3Z"/>
    <path class="st0" d="M299.2,96.9c-2.7-1.5-4.8-3.5-6.3-6.2-1.5-2.7-2.3-5.7-2.3-9s.8-6.4,2.3-9,3.6-4.8,6.3-6.3c2.7-1.5,5.7-2.2,9-2.2,5,0,9.5,1.9,12.6,4.9,3.1,3.1,5,7.6,5,12.6s-.8,6.4-2.3,9c-1.5,2.7-3.6,4.7-6.3,6.2-2.7,1.5-5.7,2.2-9,2.2s-6.3-.7-9-2.2ZM299.4,90.7c2.2,2.3,5.1,3.5,8.7,3.5s6.6-1.2,8.8-3.5c2.2-2.3,3.3-5.3,3.3-9.1s-1.1-6.7-3.3-9c-2.2-2.3-5.1-3.5-8.8-3.5s-6.5,1.2-8.7,3.5-3.4,5.3-3.4,9,1.1,6.8,3.3,9.1Z"/>
    <path class="st0" d="M357,93.9v4.8h-24.7v-34h5.3v29.2h19.4Z"/>
    <path class="st0" d="M366.9,64.6v34h-5.3v-34h5.3Z"/>
    <path class="st0" d="M380.8,98.7h-5.3v-34h5.3l20.7,25.9v-25.9h5.3v34h-5.3l-20.7-25.7v25.7Z"/>
    <path class="st0" d="M416.8,98.7h-5.6l14.1-34h5.7l14.1,34h-5.6l-2.7-7.1h-17.2l-2.7,7.1ZM421.1,87.2h14l-7-16.7-7,16.7Z"/>
  </g>
  <g>
    <path class="st0" d="M199.5,24.7c-1.2,12.8-13.9,21.5-29,21.9H0v5.2h169.9c22.9-.5,32.3-17.3,32.7-23.6h2.9v17.7h3.6v-21.3h-9.6Z"/>
    <path class="st0" d="M259.9,24.7c1.2,12.8,13.9,21.5,29,21.9h170.5c0,0,0,5.2,0,5.2h-169.9c-22.9-.5-32.3-17.3-32.7-23.6h-2.9s0,17.7,0,17.7h-3.6v-21.3s7.1,0,9.6,0Z"/>
    <rect class="st0" x="197.5" y="18.5" width="64.4" height="2.4"/>
    <g>
      <rect class="st0" x="197.5" y="22.4" width="13.9" height="2.4"/>
      <rect class="st0" x="248" y="22.4" width="13.9" height="2.4"/>
    </g>
    <path class="st0" d="M196.2,17.2h67v-2.2L229.7,0l-33.5,15v2.2ZM255.9,14.9h-52.4l26.2-11.7,26.2,11.7Z"/>
  </g>
  <path class="st0" d="M229.7,23.1c-6.7,0-12.2,5.5-12.2,12.2s5.5,12.2,12.2,12.2,12.2-5.5,12.2-12.2-5.5-12.2-12.2-12.2ZM229.7,44.1c-4.8,0-8.7-3.9-8.7-8.7s3.9-8.7,8.7-8.7,8.7,3.9,8.7,8.7-3.9,8.7-8.7,8.7Z"/>
</svg>