<?xml version="1.0" encoding="UTF-8"?>
<svg id="Layer_1" xmlns="http://www.w3.org/2000/svg" version="1.1" viewBox="0 0 459.4 51.9">
  <!-- Generator: Adobe Illustrator 30.3.0, SVG Export Plug-In . SVG Version: 2.1.3 Build 182)  -->
  <defs>
    <style>
      .st0 {
        fill: #2d3637;
      }
    </style>
  </defs>
  <g>
    <path class="st0" d="M199.5,24.7c-1.2,12.8-13.9,21.5-29,21.9H0v5.2h169.9c22.9-.5,32.3-17.3,32.7-23.6h2.9v17.7h3.6v-21.3h-9.6Z"/>
    <path class="st0" d="M259.9,24.7c1.2,12.8,13.9,21.5,29,21.9h170.5c0,0,0,5.2,0,5.2h-169.9c-22.9-.5-32.3-17.3-32.7-23.6h-2.9s0,17.7,0,17.7h-3.6v-21.3s7.1,0,9.6,0Z"/>
    <rect class="st0" x="197.5" y="18.5" width="64.4" height="2.4"/>
    <g>
      <rect class="st0" x="197.5" y="22.4" width="13.9" height="2.4"/>
      <rect class="st0" x="248" y="22.4" width="13.9" height="2.4"/>
    </g>
    <path class="st0" d="M196.2,17.2h67v-2.2L229.7,0l-33.5,15v2.2ZM255.9,14.9h-52.4l26.2-11.7,26.2,11.7Z"/>
  </g>
  <path class="st0" d="M229.7,23.1c-6.7,0-12.2,5.5-12.2,12.2s5.5,12.2,12.2,12.2,12.2-5.5,12.2-12.2-5.5-12.2-12.2-12.2ZM229.7,44.1c-4.8,0-8.7-3.9-8.7-8.7s3.9-8.7,8.7-8.7,8.7,3.9,8.7,8.7-3.9,8.7-8.7,8.7Z"/>
</svg>